<svg width="14" height="14" viewBox="0 0 14 14" fill="none" xmlns="http://www.w3.org/2000/svg">
<path d="M13.6104 10.0983L11.8124 8.30028C11.2937 7.78154 10.4495 7.78158 9.93083 8.30028L9.14089 9.09023C7.33669 8.14544 5.85406 6.66281 4.90927 4.85861L5.69925 4.06863C6.21796 3.54989 6.21796 2.7058 5.69925 2.18705L3.90126 0.389058C3.38252 -0.129686 2.53843 -0.129686 2.01968 0.389058L0.58128 1.8275C-0.170292 2.57903 -0.193791 3.90391 0.515098 5.558C1.15414 7.04911 2.32702 8.69124 3.81764 10.1819C5.30826 11.6725 6.95039 12.8454 8.4415 13.4844C9.24321 13.828 9.9675 13.9995 10.5867 13.9995C11.2451 13.9995 11.7847 13.8055 12.172 13.4183L13.6104 11.9799C13.8617 11.7286 14.0001 11.3944 14.0001 11.039C14.0001 10.6837 13.8617 10.3496 13.6104 10.0983ZM12.8076 11.1771L11.3692 12.6155C10.9797 13.0049 10.0525 12.9397 8.88869 12.4409C7.52718 11.8574 6.01132 10.77 4.62037 9.37909C3.22945 7.98814 2.14205 6.47232 1.55853 5.11081C1.0598 3.94705 0.99449 3.01975 1.38397 2.63031L2.82237 1.1919C2.89851 1.11581 3.02232 1.11581 3.09842 1.1919L4.89641 2.9899C4.9725 3.06599 4.9725 3.18984 4.89641 3.2659L3.53475 4.6276L3.70601 4.98912C4.80548 7.31021 6.68929 9.19406 9.01042 10.2935L9.37194 10.4648L10.7336 9.10309C10.7833 9.05337 10.8414 9.04591 10.8716 9.04591C10.9018 9.04591 10.9598 9.05333 11.0096 9.10305L12.8076 10.901C12.8573 10.9508 12.8647 11.0088 12.8647 11.039C12.8648 11.0693 12.8573 11.1274 12.8076 11.1771Z" fill="white"/>
</svg>
