<svg width="50" height="50" viewBox="0 0 50 50" fill="none" xmlns="http://www.w3.org/2000/svg">
<path fill-rule="evenodd" clip-rule="evenodd" d="M25 50C38.8071 50 50 38.8071 50 25C50 11.1929 38.8071 0 25 0C11.1929 0 0 11.1929 0 25C0 38.8071 11.1929 50 25 50Z" fill="#324A59"/>
<path fill-rule="evenodd" clip-rule="evenodd" d="M25 34C29.9706 34 34 29.9706 34 25C34 20.0294 29.9706 16 25 16C20.0294 16 16 20.0294 16 25C16 29.9706 20.0294 34 25 34Z" stroke="white" stroke-width="2" stroke-linecap="square"/>
<path d="M25 14V18" stroke="white" stroke-width="2" stroke-linecap="square"/>
<path d="M36 25H32" stroke="white" stroke-width="2" stroke-linecap="square"/>
<path d="M25 36V32" stroke="white" stroke-width="2" stroke-linecap="square"/>
<path d="M14 25H18" stroke="white" stroke-width="2" stroke-linecap="square"/>
<path fill-rule="evenodd" clip-rule="evenodd" d="M25 26C25.5523 26 26 25.5523 26 25C26 24.4477 25.5523 24 25 24C24.4477 24 24 24.4477 24 25C24 25.5523 24.4477 26 25 26Z" stroke="white" stroke-width="2" stroke-linecap="square"/>
<path d="M25 26C25.5523 26 26 25.5523 26 25C26 24.4477 25.5523 24 25 24C24.4477 24 24 24.4477 24 25C24 25.5523 24.4477 26 25 26Z" fill="white"/>
</svg>
