<svg width="23" height="20" viewBox="0 0 23 20" fill="none" xmlns="http://www.w3.org/2000/svg">
<path d="M22.3154 14.1144C22.6699 14.0952 22.9516 13.8021 22.9516 13.4425C22.9516 11.5035 21.3951 9.98459 19.4082 9.98459H18.7515L17.949 6.17513C18.7234 5.83866 19.2666 5.06592 19.2666 4.16824C19.2666 2.96245 18.2868 1.98145 17.0825 1.98145H13.9777C13.606 1.98145 13.3047 2.28314 13.3047 2.65528V3.49442H11.6503C11.2786 3.49442 10.9773 3.79611 10.9773 4.16824C10.9773 4.54038 11.2786 4.84207 11.6503 4.84207H13.3047V5.68121C13.3047 6.05335 13.606 6.35504 13.9777 6.35504H14.2765C13.7193 7.014 13.3823 7.86522 13.3823 8.79425V12.6287C13.3823 12.6484 13.3663 12.6644 13.3467 12.6644H10.628C10.6123 12.6644 10.5983 12.6539 10.5939 12.6388L9.86098 10.1591C10.4517 10.0011 10.8881 9.46089 10.8881 8.82035C10.8881 7.29943 9.65227 6.0621 8.13324 6.0621H2.06937C0.928355 6.06206 0 6.99154 0 8.13399C0 9.17842 0.775935 10.0443 1.78088 10.1854C0.714797 11.1402 0.042541 12.5272 0.042541 14.0686V16.1664C0.042541 16.5386 0.343877 16.8403 0.71556 16.8403H1.29788C1.61135 18.4053 2.9944 19.5881 4.64847 19.5881C6.30254 19.5881 7.68559 18.4053 7.99905 16.8403H16.2319C16.5453 18.4053 17.9284 19.5881 19.5825 19.5881C21.4669 19.5881 22.9999 18.0531 22.9999 16.1664C23 15.3972 22.745 14.6866 22.3154 14.1144ZM21.4953 12.7687H19.9803C19.8497 12.7534 19.7171 12.7447 19.5825 12.7447C19.3413 12.7447 19.106 12.7702 18.8788 12.818V11.3322H19.4082C20.3939 11.3322 21.2088 11.9255 21.4953 12.7687ZM14.6507 3.32906H17.0825C17.5446 3.32906 17.9206 3.70551 17.9206 4.1682C17.9206 4.6309 17.5446 5.00734 17.0825 5.00734H14.6507V3.32906ZM10.6281 14.012H13.3467C14.1086 14.012 14.7283 13.3915 14.7283 12.6287V8.79421C14.7283 7.63603 15.5408 6.66419 16.625 6.42013L17.5328 10.7286V13.4303C16.8741 13.9262 16.3998 14.6545 16.2319 15.4925H9.54082C9.2265 13.0749 7.23008 11.2662 4.73827 11.2662C3.62713 11.2662 2.62959 11.6291 1.84256 12.2531C2.49267 11.0361 3.77438 10.206 5.24656 10.206H8.47132L9.30336 13.0212C9.47568 13.6046 10.0204 14.012 10.6281 14.012ZM1.44325 15.4925C1.56085 14.7757 1.86709 14.129 2.3354 13.628C2.94665 12.974 3.79998 12.6138 4.73818 12.6138C6.47405 12.6138 7.87637 13.8337 8.17744 15.4925H1.44325V15.4925ZM2.06937 8.85831C1.67051 8.85831 1.34599 8.53339 1.34599 8.13399C1.34599 7.73459 1.67051 7.40967 2.06937 7.40967H8.13324C8.91011 7.40967 9.54212 8.04244 9.54212 8.82026C9.53637 8.84798 9.49199 8.86631 9.40938 8.85822C8.84947 8.85822 9.00953 8.85822 8.89291 8.85822C8.08876 8.85831 2.07328 8.85831 2.06937 8.85831ZM4.64847 18.2404C3.74181 18.2404 2.96987 17.654 2.68983 16.8402H6.60711C6.32706 17.654 5.55513 18.2404 4.64847 18.2404ZM19.5825 18.2404C18.4403 18.2404 17.511 17.31 17.511 16.1664C17.511 15.0228 18.4403 14.0924 19.5825 14.0924C20.7247 14.0924 21.654 15.0228 21.654 16.1664C21.654 17.31 20.7247 18.2404 19.5825 18.2404Z" fill="#324A59"/>
<path d="M19.5825 16.8447C19.9567 16.8447 20.26 16.541 20.26 16.1664C20.26 15.7918 19.9567 15.4882 19.5825 15.4882C19.2084 15.4882 18.905 15.7918 18.905 16.1664C18.905 16.541 19.2084 16.8447 19.5825 16.8447Z" fill="#324A59"/>
<path d="M0.701256 4.10886H6.73732C7.109 4.10886 7.41034 3.80717 7.41034 3.43504C7.41034 3.0629 7.109 2.76121 6.73732 2.76121H0.701256C0.329573 2.76121 0.0282368 3.0629 0.0282368 3.43504C0.0282368 3.80717 0.329573 4.10886 0.701256 4.10886Z" fill="#324A59"/>
<path d="M2.93709 1.34766H9.02517C9.39685 1.34766 9.69818 1.04596 9.69818 0.673828C9.69818 0.301695 9.39685 0 9.02517 0H2.93709C2.5654 0 2.26407 0.301695 2.26407 0.673828C2.26407 1.04596 2.5654 1.34766 2.93709 1.34766Z" fill="#324A59"/>
</svg>
