<svg width="37" height="16" viewBox="0 0 37 16" fill="none" xmlns="http://www.w3.org/2000/svg">
<path d="M3.00317 15.7636H8.74283C10.3988 15.7636 11.7461 14.4162 11.746 12.7604L11.746 10.2388C16.1337 8.86709 20.8665 8.86709 25.2542 10.2388V12.7606C25.2542 14.4164 26.6015 15.7637 28.2573 15.7637H33.9969C35.6528 15.7637 37.0001 14.4165 37.0001 12.7606L37 8.16885C37.0001 5.76974 34.9229 3.6176 31.1514 2.10897C27.7515 0.748976 23.2584 5.43351e-06 18.5001 4.74608e-06C13.7417 6.12094e-06 9.24871 0.748977 5.84878 2.10897C4.02078 2.84018 2.59097 3.72245 1.60265 4.71076C0.551824 5.76159 0.000108412 6.93249 0.000107037 8.16879L0.000108412 12.7604C4.79177e-05 13.5627 0.312476 14.3168 0.879714 14.8841C1.44677 15.4513 2.20099 15.7636 3.00317 15.7636ZM2.56276 12.7604L2.56277 8.16873C2.56282 6.9256 4.14683 5.54972 6.8005 4.48821C9.90497 3.24647 14.06 2.56254 18.5001 2.56254C22.9403 2.5626 27.0953 3.2464 30.1997 4.48814C32.8532 5.5496 34.4375 6.92542 34.4375 8.16867L34.4375 12.7603C34.4374 13.0033 34.2398 13.2009 33.9969 13.2009L28.2573 13.2009C28.0144 13.2009 27.8168 13.0032 27.8168 12.7604L27.8168 8.41363L26.9664 8.10996C21.5068 6.16014 15.4933 6.16008 10.0337 8.10996L9.18336 8.41369L9.18336 12.7604C9.18336 12.9191 9.10249 13.0238 9.05435 13.0719C9.00622 13.12 8.90167 13.2009 8.74295 13.2009H3.00341C2.84469 13.2009 2.74009 13.1201 2.69189 13.0719C2.64351 13.0238 2.56276 12.9191 2.56276 12.7604Z" fill="white"/>
</svg>
