<svg width="16" height="16" viewBox="0 0 16 16" fill="none" xmlns="http://www.w3.org/2000/svg">
<path d="M15.5546 11.5408L13.4997 9.48593C12.9069 8.89309 11.9422 8.89313 11.3494 9.48593L10.4466 10.3887C8.3847 9.30898 6.69028 7.61455 5.61054 5.55264L6.51336 4.64981C7.10616 4.05697 7.10616 3.0923 6.51336 2.49946L4.45853 0.444633C3.86569 -0.148211 2.90103 -0.148211 2.30818 0.444633L0.664313 2.08855C-0.194618 2.94743 -0.221473 4.46157 0.588678 6.35193C1.319 8.05604 2.65942 9.93274 4.36296 11.6363C6.06651 13.3398 7.94321 14.6803 9.64732 15.4106C10.5635 15.8032 11.3913 15.9993 12.099 15.9993C12.8514 15.9993 13.4681 15.7776 13.9107 15.335L15.5546 13.6911C15.8418 13.4039 16 13.0221 16 12.6159C16 12.2098 15.8418 11.828 15.5546 11.5408ZM14.6371 12.7737L12.9932 14.4175C12.5481 14.8626 11.4885 14.7881 10.1584 14.2181C8.60239 13.5512 6.87 12.3085 5.28036 10.7188C3.69076 9.12921 2.44804 7.39686 1.78116 5.84086C1.21119 4.51087 1.13655 3.45111 1.58167 3.00603L3.22554 1.36216C3.31254 1.2752 3.45404 1.2752 3.54101 1.36216L5.59583 3.41699C5.6828 3.50395 5.6828 3.64549 5.59583 3.73242L4.03966 5.28863L4.23539 5.70179C5.49192 8.35443 7.64482 10.5074 10.2975 11.7639L10.7107 11.9596L12.2668 10.4034C12.3237 10.3466 12.3901 10.3381 12.4246 10.3381C12.459 10.3381 12.5254 10.3466 12.5822 10.4034L14.637 12.4582C14.6939 12.515 14.7024 12.5814 14.7024 12.6159C14.7025 12.6505 14.6939 12.7168 14.6371 12.7737Z" fill="#324A59"/>
</svg>
