<svg width="32" height="32" viewBox="0 0 32 32" fill="none" xmlns="http://www.w3.org/2000/svg">
<path d="M32 14.9841C32 20.2666 27.7334 24.5841 22.4001 24.5841C17.1175 24.5841 12.8001 20.2666 12.8001 14.9841C12.8001 9.70157 17.0667 5.38411 22.3493 5.38411C27.7334 5.38411 32 9.70157 32 14.9841Z" fill="#FFB600"/>
<path d="M22.4001 5.38411C27.6826 5.38411 32 9.70157 32 14.9841C32 20.2666 27.7334 24.5841 22.4001 24.5841C17.1175 24.5841 12.8001 20.2666 12.8001 14.9841" fill="#F7981D"/>
<path d="M22.4 5.38411C27.6825 5.38411 32 9.70157 32 14.9841C32 20.2666 27.7333 24.5841 22.4 24.5841" fill="#FF8500"/>
<path d="M9.4984 5.38411C4.26666 5.43491 0 9.70157 0 14.9841C0 20.2666 4.26666 24.5841 9.59998 24.5841C12.0889 24.5841 14.3238 23.619 16.0508 22.0952C16.4063 21.7904 16.7111 21.4349 17.0158 21.0793H15.0349C14.7809 20.7746 14.527 20.419 14.3238 20.1143H17.727C17.9301 19.8095 18.1333 19.4539 18.2857 19.0984H13.7651C13.6127 18.7936 13.4603 18.4381 13.3587 18.0825H18.6412C18.946 17.1174 19.1492 16.1016 19.1492 15.0349C19.1492 14.3238 19.0476 13.6635 18.946 13.0032H13.0539C13.1047 12.6476 13.2063 12.3428 13.3079 11.9873H18.5904C18.4889 11.6317 18.3365 11.2762 18.1841 10.9714H13.7143C13.8666 10.6159 14.0698 10.3111 14.273 9.95554H17.6762C17.473 9.59998 17.219 9.24443 16.9143 8.93966H15.0349C15.3397 8.58411 15.6444 8.27935 16 7.97459C14.3238 6.39999 12.0381 5.4857 9.54919 5.4857C9.54919 5.38411 9.54919 5.38411 9.4984 5.38411Z" fill="#FF5050"/>
<path d="M0 14.9841C0 20.2666 4.26666 24.5841 9.59998 24.5841C12.0889 24.5841 14.3238 23.619 16.0508 22.0952C16.4063 21.7904 16.7111 21.4349 17.0158 21.0793H15.0349C14.7809 20.7746 14.527 20.419 14.3238 20.1143H17.727C17.9301 19.8095 18.1333 19.4539 18.2857 19.0984H13.7651C13.6127 18.7936 13.4603 18.4381 13.3587 18.0825H18.6412C18.946 17.1174 19.1492 16.1016 19.1492 15.0349C19.1492 14.3238 19.0476 13.6635 18.946 13.0032H13.0539C13.1047 12.6476 13.2063 12.3428 13.3079 11.9873H18.5904C18.4889 11.6317 18.3365 11.2762 18.1841 10.9714H13.7143C13.8666 10.6159 14.0698 10.3111 14.273 9.95554H17.6762C17.473 9.59999 17.219 9.24443 16.9143 8.93967H15.0349C15.3397 8.58412 15.6444 8.27935 16 7.97459C14.3238 6.39999 12.0381 5.48571 9.54919 5.48571H9.4984" fill="#E52836"/>
<path d="M9.60002 24.5841C12.0889 24.5841 14.3238 23.619 16.0508 22.0952C16.4064 21.7904 16.7111 21.4349 17.0159 21.0793H15.0349C14.781 20.7746 14.527 20.419 14.3238 20.1143H17.727C17.9302 19.8095 18.1333 19.4539 18.2857 19.0984H13.7651C13.6127 18.7936 13.4603 18.4381 13.3587 18.0825H18.6413C18.946 17.1174 19.1492 16.1016 19.1492 15.0349C19.1492 14.3238 19.0476 13.6635 18.946 13.0032H13.054C13.1048 12.6476 13.2064 12.3428 13.308 11.9873H18.5905C18.4889 11.6317 18.3365 11.2762 18.1841 10.9714H13.7143C13.8667 10.6159 14.0699 10.3111 14.273 9.95554H17.6762C17.473 9.59999 17.2191 9.24443 16.9143 8.93967H15.0349C15.3397 8.58412 15.6445 8.27935 16 7.97459C14.3238 6.39999 12.0381 5.48571 9.54923 5.48571H9.49844" fill="#CB2026"/>
<path d="M13.0032 17.4222L13.1556 16.5587C13.1048 16.5587 13.0032 16.6095 12.9016 16.6095C12.546 16.6095 12.4953 16.4063 12.546 16.3047L12.8508 14.527H13.4095L13.5619 13.5619H13.054L13.1556 12.9524H12.1397C12.1397 12.9524 11.5302 16.3047 11.5302 16.7111C11.5302 17.3206 11.8857 17.5746 12.3429 17.5746C12.6476 17.5746 12.9016 17.473 13.0032 17.4222Z" fill="white"/>
<path fill-rule="evenodd" clip-rule="evenodd" d="M15.1365 17.5746C14.3238 17.5746 13.3587 17.219 13.3587 15.7968C13.3587 14.527 14.1206 13.4095 15.1873 13.5111C16.3048 13.5111 16.6603 14.3238 16.6603 14.9841C16.6603 15.2381 16.5079 15.8984 16.5079 15.8984H14.4254C14.4254 15.8984 14.2222 16.7111 15.3397 16.7111C15.8476 16.7111 16.4064 16.4571 16.4064 16.4571L16.2032 17.4222C16.2032 17.4222 15.8984 17.5746 15.1365 17.5746ZM15.5952 15.012C15.6056 14.8838 15.6511 14.3238 15.1365 14.3238C14.5778 14.3238 14.4762 14.9841 14.4762 15.0349H15.5937C15.5937 15.0309 15.5943 15.0231 15.5952 15.012Z" fill="white"/>
<path d="M21.5872 17.4222L21.7904 16.3047C21.7904 16.3047 21.2825 16.5587 20.9269 16.5587C20.2158 16.5587 19.911 16 19.911 15.3905C19.911 14.1714 20.5206 13.5111 21.2317 13.5111C21.7396 13.5111 22.146 13.8159 22.146 13.8159L22.2983 12.7492C22.2983 12.7492 21.6888 12.4952 21.1301 12.4952C19.9618 12.4952 18.7936 13.5111 18.7936 15.4412C18.7936 16.7111 19.4031 17.5746 20.6221 17.5746C21.0285 17.5746 21.5872 17.4222 21.5872 17.4222Z" fill="white"/>
<path fill-rule="evenodd" clip-rule="evenodd" d="M6.1968 13.6127C6.1968 13.6127 6.70474 13.4095 7.41585 13.4095C7.7714 13.4095 8.78728 13.4603 8.78728 14.6793L8.38093 17.473H7.46664L7.51744 17.0666C7.50672 17.0666 7.48472 17.087 7.44998 17.1191C7.32002 17.2391 7.01191 17.5238 6.45077 17.5238C6.09522 17.5238 5.48569 17.3206 5.48569 16.4063C5.48569 15.2381 6.45077 14.8825 7.31426 14.8825H7.7714C7.7714 14.8825 7.8222 14.8317 7.8222 14.6285C7.8222 14.3238 7.51744 14.273 7.16188 14.273C6.50157 14.273 6.04442 14.4762 6.04442 14.4762L6.1968 13.6127ZM6.90795 16.6603C7.51747 16.6603 7.61906 15.8476 7.61906 15.6952C7.61906 15.6952 7.56827 15.6952 7.41589 15.6444C6.65398 15.6444 6.5016 16 6.5016 16.2539C6.5016 16.4063 6.60319 16.6603 6.90795 16.6603Z" fill="white"/>
<path d="M9.75241 17.5238C10.0064 17.5238 11.2762 17.5746 11.2762 16.2031C11.2762 14.9333 10.0572 15.1873 10.0572 14.6793C10.0572 14.4254 10.2603 14.3238 10.6159 14.3238C10.7683 14.3238 11.327 14.3746 11.327 14.3746L11.4794 13.4603C11.4794 13.4603 11.1238 13.3587 10.5143 13.3587C9.75241 13.3587 8.9905 13.6635 8.9905 14.6793C8.9905 15.8476 10.2603 15.746 10.2603 16.2031C10.2603 16.5079 9.90479 16.5587 9.65082 16.5587C9.19368 16.5587 8.73654 16.4063 8.73654 16.4063L8.58416 17.3206C8.63495 17.4222 8.88892 17.5238 9.75241 17.5238Z" fill="white"/>
<path fill-rule="evenodd" clip-rule="evenodd" d="M29.8159 13.9682L30.0191 12.5968L31.0857 12.6476L30.3238 17.5238H29.308L29.3587 17.1682C29.3587 17.1682 29.0032 17.5746 28.3937 17.5746C27.5302 17.5746 27.1238 16.7111 27.1238 15.8984C27.1238 14.5778 27.9365 13.4603 28.8508 13.4603C29.4095 13.4603 29.8159 13.9682 29.8159 13.9682ZM28.7492 16.5587C29.308 16.5587 29.5619 15.8476 29.5619 15.2889C29.5619 14.6794 29.3588 14.4254 29.0032 14.4254C28.5461 14.4254 28.1905 14.9333 28.1905 15.746C28.1905 16.254 28.3937 16.5587 28.7492 16.5587Z" fill="white"/>
<path d="M1.87936 17.473L2.48888 13.8159L2.59047 17.473H3.30158L4.62221 13.8159L4.06348 17.473H5.13015L5.94285 12.5968H4.26666L3.25079 15.5936L3.19999 12.5968H1.72698L0.914282 17.473H1.87936Z" fill="white"/>
<path d="M17.6254 17.473C17.9302 15.7968 17.9809 14.4254 18.6921 14.6793C18.7936 14.019 18.946 13.7651 19.0476 13.5111C19.0476 13.5111 18.9968 13.5111 18.8444 13.5111C18.3873 13.5111 18.0317 14.1206 18.0317 14.1206L18.1333 13.5619H17.1683L16.5079 17.5238H17.6254V17.473Z" fill="white"/>
<path fill-rule="evenodd" clip-rule="evenodd" d="M22.7047 13.6127C22.7047 13.6127 23.2127 13.4095 23.9238 13.4095C24.2793 13.4095 25.346 13.4603 25.2952 14.6793L24.8889 17.473H23.9746L24.0254 17.0666C24.0147 17.0666 23.9927 17.087 23.9579 17.1191C23.828 17.2391 23.5198 17.5238 22.9587 17.5238C22.6032 17.5238 21.9936 17.3206 21.9936 16.4063C21.9936 15.2381 22.9587 14.8825 23.8222 14.8825H24.2793C24.2793 14.8825 24.3301 14.8317 24.3301 14.6285C24.3301 14.3238 24.0254 14.273 23.6698 14.273C23.0095 14.273 22.5524 14.4762 22.5524 14.4762L22.7047 13.6127ZM23.4667 16.6603C24.0762 16.6603 24.1778 15.8476 24.1778 15.6952C24.1653 15.6952 24.1559 15.6952 24.1466 15.6945C24.1178 15.6921 24.0896 15.6828 23.9746 15.6444C23.2127 15.6444 23.0603 16 23.0603 16.2539C23.0603 16.4063 23.1619 16.6603 23.4667 16.6603Z" fill="white"/>
<path d="M26.1587 17.473C26.4635 15.7968 26.5142 14.4254 27.2254 14.6793C27.3269 14.019 27.4793 13.7651 27.5809 13.5111C27.5809 13.5111 27.5301 13.5111 27.3777 13.5111C26.9206 13.5111 26.565 14.1206 26.565 14.1206L26.6666 13.5619H25.7016L25.0412 17.5238H26.1587V17.473Z" fill="white"/>
<path d="M11.4286 16.7111C11.4286 17.3206 11.7841 17.5746 12.2413 17.5746C12.5968 17.5746 12.9016 17.473 13.0032 17.4222L13.1556 16.5587C13.1048 16.5587 13.0032 16.6095 12.9016 16.6095C12.546 16.6095 12.4953 16.4063 12.546 16.3047L12.8508 14.527H13.4095L13.5619 13.5619H13.054L13.1556 12.9524" fill="#DCE5E5"/>
<path fill-rule="evenodd" clip-rule="evenodd" d="M15.1365 17.5746C14.3238 17.5746 13.8667 17.219 13.8667 15.7968C13.8667 14.527 14.1206 13.4095 15.1873 13.5111C16.3048 13.5111 16.6603 14.3238 16.6603 14.9841C16.6603 15.2381 16.5079 15.8984 16.5079 15.8984H14.4254C14.4254 15.8984 14.2222 16.7111 15.3397 16.7111C15.8476 16.7111 16.4064 16.4571 16.4064 16.4571L16.2032 17.4222C16.2032 17.4222 15.8984 17.5746 15.1365 17.5746ZM15.7968 15.0349C15.7968 14.9841 15.6952 14.3238 15.1365 14.3238C14.5777 14.3238 14.4761 14.9841 14.4761 15.0349H15.7968Z" fill="#DCE5E5"/>
<path d="M21.5873 17.4222L21.7905 16.3047C21.7905 16.3047 21.2826 16.5587 20.927 16.5587C20.2159 16.5587 19.9112 16 19.9112 15.3905C19.9112 14.1714 20.5207 13.5111 21.2318 13.5111C21.7397 13.5111 22.1461 13.8159 22.1461 13.8159L22.2985 12.7492C22.2985 12.7492 21.6889 12.4952 21.1302 12.4952C19.962 12.4952 19.3016 13.5111 19.3016 15.4412C19.3016 16.7111 19.4032 17.5746 20.6223 17.5746C21.0286 17.5746 21.5873 17.4222 21.5873 17.4222Z" fill="#DCE5E5"/>
<path fill-rule="evenodd" clip-rule="evenodd" d="M7.16188 14.3238C6.50157 14.3238 6.04442 14.527 6.04442 14.527L7.36506 13.5111C7.7714 13.5111 8.78728 13.5619 8.78728 14.7301L8.38093 17.5238H7.46664L7.51744 17.1174C7.50672 17.1174 7.48472 17.1378 7.44998 17.1699C7.32002 17.2899 7.01191 17.5746 6.45077 17.5746C6.09522 17.5746 5.48569 17.3714 5.48569 16.4571C5.48569 15.2889 6.45077 14.9333 7.31426 14.9333H7.7714C7.7714 14.9333 7.8222 14.8825 7.8222 14.6793C7.8222 14.3746 7.51744 14.3238 7.16188 14.3238ZM6.90795 16.6603C7.51747 16.6603 8.127 15.8476 8.127 15.6952C8.127 15.6952 7.56827 15.6952 7.41589 15.6444C6.65398 15.6444 6.5016 16 6.5016 16.2539C6.5016 16.4063 6.60319 16.6603 6.90795 16.6603Z" fill="#DCE5E5"/>
<path d="M8.63489 17.4222C8.63489 17.4222 8.93965 17.5238 9.80314 17.5238C10.0571 17.5238 11.3269 17.5746 11.3269 16.2031C11.3269 14.9333 10.1079 15.1873 10.1079 14.6793C10.1079 14.4254 10.3111 14.3238 10.6666 14.3238C10.819 14.3238 11.3777 14.3746 11.3777 14.3746L11.5301 13.4603C11.5301 13.4603 11.1746 13.3587 10.565 13.3587C9.80314 13.3587 9.54917 13.6635 9.54917 14.6793C9.54917 15.8476 10.3111 15.746 10.3111 16.2031C10.3111 16.5079 9.95552 16.5587 9.70155 16.5587" fill="#DCE5E5"/>
<path fill-rule="evenodd" clip-rule="evenodd" d="M28.8508 13.4603C29.4095 13.4603 29.8159 13.9682 29.8159 13.9682L31.0857 12.6476L30.3238 17.5238H29.308L29.3587 17.1682C29.3587 17.1682 29.0032 17.5746 28.3937 17.5746C27.6128 17.5746 27.6212 16.8684 27.6299 16.1322C27.6308 16.0543 27.6318 15.9761 27.6318 15.8984C27.6318 14.5778 27.9365 13.4603 28.8508 13.4603ZM28.7492 16.5587C29.308 16.5587 29.7651 15.8476 29.7651 15.2889C29.7651 14.6793 29.3588 14.4254 29.0032 14.4254C28.5461 14.4254 28.1905 14.9333 28.1905 15.746C28.1905 16.2539 28.3937 16.5587 28.7492 16.5587Z" fill="#DCE5E5"/>
<path d="M1.87936 17.473L2.48888 13.8159L2.59047 17.473H3.30158L4.62221 13.8159L4.06348 17.473H5.13015L5.94285 12.5968H4.67301L3.25079 15.5936L3.19999 12.5968H2.64126L0.914282 17.473H1.87936Z" fill="#DCE5E5"/>
<path d="M16.5588 17.473H17.6255C17.9302 15.7968 17.981 14.4254 18.6921 14.6793C18.7937 14.019 18.9461 13.7651 19.0477 13.5111C19.0477 13.5111 18.9969 13.5111 18.8445 13.5111C18.3874 13.5111 18.0318 14.1206 18.0318 14.1206L18.1334 13.5619" fill="#DCE5E5"/>
<path fill-rule="evenodd" clip-rule="evenodd" d="M23.6698 14.3238C23.0095 14.3238 22.5524 14.527 22.5524 14.527L23.873 13.5111C24.2793 13.5111 25.2952 13.5619 25.2952 14.7301L24.8889 17.5238H23.9746L24.0254 17.1174C24.0147 17.1174 23.9927 17.1378 23.9579 17.1699C23.828 17.2899 23.5198 17.5746 22.9587 17.5746C22.6032 17.5746 21.9936 17.3714 21.9936 16.4571C21.9936 15.2889 22.9587 14.9333 23.8222 14.9333H24.2793C24.2793 14.9333 24.3301 14.8825 24.3301 14.6793C24.3301 14.3746 24.0254 14.3238 23.6698 14.3238ZM23.4159 16.6603C24.0254 16.6603 24.6349 15.8476 24.6349 15.6952C24.6349 15.6952 24.127 15.6952 23.9238 15.6444C23.1619 15.6444 23.0095 16 23.0095 16.2539C23.0095 16.4063 23.1111 16.6603 23.4159 16.6603Z" fill="#DCE5E5"/>
<path d="M25.092 17.473H26.1586C26.4634 15.7968 26.5142 14.4254 27.2253 14.6793C27.3269 14.019 27.4793 13.7651 27.5809 13.5111C27.5809 13.5111 27.5301 13.5111 27.3777 13.5111C26.9205 13.5111 26.565 14.1206 26.565 14.1206L26.6666 13.5619" fill="#DCE5E5"/>
</svg>
