<svg width="256" height="30" viewBox="0 0 256 30" fill="none" xmlns="http://www.w3.org/2000/svg">
<g clip-path="url(#clip0_4_90)">
<path d="M21.6585 21.1735C21.3363 21.1389 21.0481 21.3722 21.0138 21.6939L20.2526 28.8281H9.74743L8.99655 21.7898C8.96221 21.468 8.67364 21.2347 8.35178 21.2694C8.02999 21.3037 7.79702 21.5924 7.83135 21.9141L8.63813 29.4762C8.66989 29.7741 8.9212 30 9.22073 30H20.7794C21.0789 30 21.3302 29.7741 21.362 29.4762L22.179 21.8183C22.2133 21.4965 21.9803 21.2078 21.6585 21.1735Z" fill="#324A59"/>
<path d="M24.3745 4.17715H23.0635L22.0313 1.63951C21.9415 1.41873 21.7269 1.27436 21.4886 1.27436H17.8936L16.8868 0.187734C16.7759 0.0680273 16.6202 0 16.457 0H13.543C13.3798 0 13.2241 0.0680273 13.1132 0.187734L12.1065 1.27436H8.51151C8.27315 1.27436 8.05858 1.41873 7.96875 1.63951L6.93651 4.17715H5.62547C5.30186 4.17715 5.03954 4.43947 5.03954 4.76309V7.28104C5.03954 7.60465 5.30186 7.86697 5.62547 7.86697H6.33258L7.06817 14.7616C7.1025 15.0834 7.39108 15.3166 7.71293 15.2821C8.03473 15.2477 8.2677 14.959 8.23336 14.6373L7.51102 7.86697H22.4889L21.7641 14.6598C21.7298 14.9816 21.9628 15.2702 22.2846 15.3046C22.3057 15.3069 22.3267 15.308 22.3474 15.308C22.6431 15.308 22.8973 15.0848 22.9293 14.7841L23.6673 7.86697H24.3744C24.698 7.86697 24.9604 7.60465 24.9604 7.28104V4.76309C24.9605 4.43947 24.6981 4.17715 24.3745 4.17715ZM8.90567 2.44623H12.3623C12.5255 2.44623 12.6813 2.3782 12.7921 2.2585L13.7989 1.17188H16.2011L17.2079 2.2585C17.3188 2.37814 17.4745 2.44623 17.6377 2.44623H21.0943L21.7984 4.17715H8.20161L8.90567 2.44623ZM23.7886 6.6951H6.21141V5.34902H23.7886V6.6951Z" fill="#324A59"/>
<path d="M6.03011 12.8271L7.19847 23.7779H22.8015L23.9699 12.8271H6.03011ZM15 20.5038C13.8091 20.5038 12.8437 19.5384 12.8437 18.3475C12.8437 17.1567 13.8091 16.1913 15 16.1913C16.1909 16.1913 17.1562 17.1567 17.1562 18.3475C17.1562 19.5384 16.1909 20.5038 15 20.5038Z" fill="#E4D5C9"/>
<path d="M15 21.0897C13.4879 21.0897 12.2578 19.8596 12.2578 18.3475C12.2578 16.8355 13.4879 15.6053 15 15.6053C16.5121 15.6053 17.7422 16.8355 17.7422 18.3475C17.7422 19.8596 16.5121 21.0897 15 21.0897ZM15 16.7773C14.1341 16.7773 13.4297 17.4817 13.4297 18.3476C13.4297 19.2135 14.1341 19.9179 15 19.9179C15.8659 19.9179 16.5703 19.2135 16.5703 18.3476C16.5703 17.4817 15.8658 16.7773 15 16.7773Z" fill="#324A59"/>
</g>
<g clip-path="url(#clip1_4_90)">
<path d="M53.8808 21.1735C53.5585 21.1389 53.2703 21.3722 53.236 21.6939L52.4748 28.8281H41.9696L41.2188 21.7898C41.1844 21.468 40.8959 21.2347 40.574 21.2694C40.2522 21.3037 40.0192 21.5924 40.0536 21.9141L40.8604 29.4762C40.8921 29.7741 41.1434 30 41.4429 30H53.0016C53.3012 30 53.5525 29.7741 53.5842 29.4762L54.4012 21.8183C54.4355 21.4965 54.2025 21.2078 53.8808 21.1735Z" fill="#324A59"/>
<path d="M56.5968 4.17715H55.2857L54.2535 1.63951C54.1637 1.41873 53.9491 1.27436 53.7108 1.27436H50.1158L49.1091 0.187734C48.9981 0.0680273 48.8424 0 48.6792 0H45.7652C45.602 0 45.4463 0.0680273 45.3354 0.187734L44.3287 1.27436H40.7337C40.4954 1.27436 40.2808 1.41873 40.191 1.63951L39.1587 4.17715H37.8477C37.5241 4.17715 37.2618 4.43947 37.2618 4.76309V7.28104C37.2618 7.60465 37.5241 7.86697 37.8477 7.86697H38.5548L39.2904 14.7616C39.3247 15.0834 39.6133 15.3166 39.9352 15.2821C40.257 15.2477 40.4899 14.959 40.4556 14.6373L39.7332 7.86697H54.7111L53.9863 14.6598C53.952 14.9816 54.185 15.2702 54.5068 15.3046C54.5279 15.3069 54.5489 15.308 54.5696 15.308C54.8653 15.308 55.1195 15.0848 55.1515 14.7841L55.8895 7.86697H56.5966C56.9203 7.86697 57.1826 7.60465 57.1826 7.28104V4.76309C57.1827 4.43947 56.9204 4.17715 56.5968 4.17715ZM41.1279 2.44623H44.5846C44.7478 2.44623 44.9035 2.3782 45.0144 2.2585L46.0211 1.17188H48.4233L49.4301 2.2585C49.541 2.37814 49.6968 2.44623 49.8599 2.44623H53.3166L54.0206 4.17715H40.4238L41.1279 2.44623ZM56.0108 6.6951H38.4336V5.34902H56.0108V6.6951Z" fill="#324A59"/>
<path d="M38.2523 12.8271L39.4207 23.7779H55.0237L56.1921 12.8271H38.2523ZM47.2222 20.5038C46.0314 20.5038 45.066 19.5384 45.066 18.3475C45.066 17.1567 46.0314 16.1913 47.2222 16.1913C48.4131 16.1913 49.3785 17.1567 49.3785 18.3475C49.3785 19.5384 48.4131 20.5038 47.2222 20.5038Z" fill="#E4D5C9"/>
<path d="M47.2222 21.0897C45.7101 21.0897 44.48 19.8596 44.48 18.3475C44.48 16.8355 45.7101 15.6053 47.2222 15.6053C48.7343 15.6053 49.9644 16.8355 49.9644 18.3475C49.9644 19.8596 48.7343 21.0897 47.2222 21.0897ZM47.2222 16.7773C46.3564 16.7773 45.6519 17.4817 45.6519 18.3476C45.6519 19.2135 46.3563 19.9179 47.2222 19.9179C48.0881 19.9179 48.7925 19.2135 48.7925 18.3476C48.7925 17.4817 48.0881 16.7773 47.2222 16.7773Z" fill="#324A59"/>
</g>
<g clip-path="url(#clip2_4_90)">
<path d="M86.103 21.1735C85.7807 21.1389 85.4925 21.3722 85.4582 21.6939L84.697 28.8281H74.1919L73.441 21.7898C73.4067 21.468 73.1181 21.2347 72.7962 21.2694C72.4744 21.3037 72.2415 21.5924 72.2758 21.9141L73.0826 29.4762C73.1143 29.7741 73.3656 30 73.6652 30H85.2238C85.5234 30 85.7747 29.7741 85.8064 29.4762L86.6235 21.8183C86.6577 21.4965 86.4247 21.2078 86.103 21.1735Z" fill="#324A59"/>
<path d="M88.819 4.17715H87.5079L86.4758 1.63951C86.3859 1.41873 86.1714 1.27436 85.933 1.27436H82.338L81.3313 0.187734C81.2204 0.0680273 81.0646 0 80.9014 0H77.9875C77.8243 0 77.6685 0.0680273 77.5577 0.187734L76.5509 1.27436H72.9559C72.7176 1.27436 72.503 1.41873 72.4132 1.63951L71.3809 4.17715H70.0699C69.7463 4.17715 69.484 4.43947 69.484 4.76309V7.28104C69.484 7.60465 69.7463 7.86697 70.0699 7.86697H70.777L71.5126 14.7616C71.5469 15.0834 71.8355 15.3166 72.1574 15.2821C72.4792 15.2477 72.7121 14.959 72.6778 14.6373L71.9555 7.86697H86.9333L86.2086 14.6598C86.1742 14.9816 86.4073 15.2702 86.729 15.3046C86.7501 15.3069 86.7711 15.308 86.7919 15.308C87.0875 15.308 87.3417 15.0848 87.3738 14.7841L88.1117 7.86697H88.8189C89.1425 7.86697 89.4048 7.60465 89.4048 7.28104V4.76309C89.4049 4.43947 89.1426 4.17715 88.819 4.17715ZM73.3501 2.44623H76.8068C76.97 2.44623 77.1257 2.3782 77.2366 2.2585L78.2433 1.17188H80.6456L81.6523 2.2585C81.7632 2.37814 81.919 2.44623 82.0821 2.44623H85.5388L86.2428 4.17715H72.646L73.3501 2.44623ZM88.233 6.6951H70.6558V5.34902H88.233V6.6951Z" fill="#324A59"/>
<path d="M70.4746 12.8271L71.6429 23.7779H87.246L88.4143 12.8271H70.4746ZM79.4444 20.5038C78.2536 20.5038 77.2882 19.5384 77.2882 18.3475C77.2882 17.1567 78.2536 16.1913 79.4444 16.1913C80.6353 16.1913 81.6007 17.1567 81.6007 18.3475C81.6007 19.5384 80.6353 20.5038 79.4444 20.5038Z" fill="#E4D5C9"/>
<path d="M79.4444 21.0897C77.9324 21.0897 76.7022 19.8596 76.7022 18.3475C76.7022 16.8355 77.9324 15.6053 79.4444 15.6053C80.9565 15.6053 82.1866 16.8355 82.1866 18.3475C82.1866 19.8596 80.9565 21.0897 79.4444 21.0897ZM79.4444 16.7773C78.5786 16.7773 77.8741 17.4817 77.8741 18.3476C77.8741 19.2135 78.5785 19.9179 79.4444 19.9179C80.3103 19.9179 81.0147 19.2135 81.0147 18.3476C81.0147 17.4817 80.3103 16.7773 79.4444 16.7773Z" fill="#324A59"/>
</g>
<g clip-path="url(#clip3_4_90)">
<path d="M150.547 21.1735C150.225 21.1389 149.937 21.3722 149.903 21.6939L149.141 28.8281H138.636L137.885 21.7898C137.851 21.468 137.563 21.2347 137.241 21.2694C136.919 21.3037 136.686 21.5924 136.72 21.9141L137.527 29.4762C137.559 29.7741 137.81 30 138.11 30H149.668C149.968 30 150.219 29.7741 150.251 29.4762L151.068 21.8183C151.102 21.4965 150.869 21.2078 150.547 21.1735Z" fill="#D8D8D8"/>
<path d="M153.263 4.17715H151.952L150.92 1.63951C150.83 1.41873 150.616 1.27436 150.377 1.27436H146.782L145.776 0.187734C145.665 0.0680273 145.509 0 145.346 0H142.432C142.269 0 142.113 0.0680273 142.002 0.187734L140.995 1.27436H137.4C137.162 1.27436 136.947 1.41873 136.858 1.63951L135.825 4.17715H134.514C134.191 4.17715 133.928 4.43947 133.928 4.76309V7.28104C133.928 7.60465 134.191 7.86697 134.514 7.86697H135.221L135.957 14.7616C135.991 15.0834 136.28 15.3166 136.602 15.2821C136.924 15.2477 137.157 14.959 137.122 14.6373L136.4 7.86697H151.378L150.653 14.6598C150.619 14.9816 150.852 15.2702 151.173 15.3046C151.195 15.3069 151.216 15.308 151.236 15.308C151.532 15.308 151.786 15.0848 151.818 14.7841L152.556 7.86697H153.263C153.587 7.86697 153.849 7.60465 153.849 7.28104V4.76309C153.849 4.43947 153.587 4.17715 153.263 4.17715ZM137.795 2.44623H141.251C141.414 2.44623 141.57 2.3782 141.681 2.2585L142.688 1.17188H145.09L146.097 2.2585C146.208 2.37814 146.363 2.44623 146.527 2.44623H149.983L150.687 4.17715H137.09L137.795 2.44623ZM152.677 6.6951H135.1V5.34902H152.677V6.6951Z" fill="#D8D8D8"/>
<path d="M134.919 12.8271L136.087 23.7779H151.69L152.859 12.8271H134.919ZM143.889 20.5038C142.698 20.5038 141.733 19.5384 141.733 18.3475C141.733 17.1567 142.698 16.1913 143.889 16.1913C145.08 16.1913 146.045 17.1567 146.045 18.3475C146.045 19.5384 145.08 20.5038 143.889 20.5038Z" fill="#D8D8D8"/>
<path d="M143.889 21.0897C142.377 21.0897 141.147 19.8596 141.147 18.3475C141.147 16.8355 142.377 15.6053 143.889 15.6053C145.401 15.6053 146.631 16.8355 146.631 18.3475C146.631 19.8596 145.401 21.0897 143.889 21.0897ZM143.889 16.7773C143.023 16.7773 142.319 17.4817 142.319 18.3476C142.319 19.2135 143.023 19.9179 143.889 19.9179C144.755 19.9179 145.459 19.2135 145.459 18.3476C145.459 17.4817 144.755 16.7773 143.889 16.7773Z" fill="#D8D8D8"/>
</g>
<g clip-path="url(#clip4_4_90)">
<path d="M182.77 21.1735C182.447 21.1389 182.159 21.3722 182.125 21.6939L181.364 28.8281H170.859L170.108 21.7898C170.073 21.468 169.785 21.2347 169.463 21.2694C169.141 21.3037 168.908 21.5924 168.942 21.9141L169.749 29.4762C169.781 29.7741 170.032 30 170.332 30H181.891C182.19 30 182.441 29.7741 182.473 29.4762L183.29 21.8183C183.324 21.4965 183.091 21.2078 182.77 21.1735Z" fill="#D8D8D8"/>
<path d="M185.486 4.17715H184.175L183.142 1.63951C183.053 1.41873 182.838 1.27436 182.6 1.27436H179.005L177.998 0.187734C177.887 0.0680273 177.731 0 177.568 0H174.654C174.491 0 174.335 0.0680273 174.224 0.187734L173.218 1.27436H169.623C169.384 1.27436 169.17 1.41873 169.08 1.63951L168.048 4.17715H166.737C166.413 4.17715 166.151 4.43947 166.151 4.76309V7.28104C166.151 7.60465 166.413 7.86697 166.737 7.86697H167.444L168.179 14.7616C168.214 15.0834 168.502 15.3166 168.824 15.2821C169.146 15.2477 169.379 14.959 169.344 14.6373L168.622 7.86697H183.6L182.875 14.6598C182.841 14.9816 183.074 15.2702 183.396 15.3046C183.417 15.3069 183.438 15.308 183.459 15.308C183.754 15.308 184.008 15.0848 184.04 14.7841L184.778 7.86697H185.486C185.809 7.86697 186.071 7.60465 186.071 7.28104V4.76309C186.072 4.43947 185.809 4.17715 185.486 4.17715ZM170.017 2.44623H173.473C173.637 2.44623 173.792 2.3782 173.903 2.2585L174.91 1.17188H177.312L178.319 2.2585C178.43 2.37814 178.586 2.44623 178.749 2.44623H182.205L182.91 4.17715H169.313L170.017 2.44623ZM184.9 6.6951H167.323V5.34902H184.9V6.6951Z" fill="#D8D8D8"/>
<path d="M167.141 12.8271L168.31 23.7779H183.913L185.081 12.8271H167.141ZM176.111 20.5038C174.92 20.5038 173.955 19.5384 173.955 18.3475C173.955 17.1567 174.92 16.1913 176.111 16.1913C177.302 16.1913 178.267 17.1567 178.267 18.3475C178.267 19.5384 177.302 20.5038 176.111 20.5038Z" fill="#D8D8D8"/>
<path d="M176.111 21.0897C174.599 21.0897 173.369 19.8596 173.369 18.3475C173.369 16.8355 174.599 15.6053 176.111 15.6053C177.623 15.6053 178.853 16.8355 178.853 18.3475C178.853 19.8596 177.623 21.0897 176.111 21.0897ZM176.111 16.7773C175.245 16.7773 174.541 17.4817 174.541 18.3476C174.541 19.2135 175.245 19.9179 176.111 19.9179C176.977 19.9179 177.681 19.2135 177.681 18.3476C177.681 17.4817 176.977 16.7773 176.111 16.7773Z" fill="#D8D8D8"/>
</g>
<g clip-path="url(#clip5_4_90)">
<path d="M214.992 21.1735C214.67 21.1389 214.381 21.3722 214.347 21.6939L213.586 28.8281H203.081L202.33 21.7898C202.296 21.468 202.007 21.2347 201.685 21.2694C201.363 21.3037 201.13 21.5924 201.165 21.9141L201.971 29.4762C202.003 29.7741 202.255 30 202.554 30H214.113C214.412 30 214.664 29.7741 214.695 29.4762L215.512 21.8183C215.547 21.4965 215.314 21.2078 214.992 21.1735Z" fill="#D8D8D8"/>
<path d="M217.708 4.17715H216.397L215.365 1.63951C215.275 1.41873 215.06 1.27436 214.822 1.27436H211.227L210.22 0.187734C210.109 0.0680273 209.954 0 209.79 0H206.876C206.713 0 206.557 0.0680273 206.447 0.187734L205.44 1.27436H201.845C201.606 1.27436 201.392 1.41873 201.302 1.63951L200.27 4.17715H198.959C198.635 4.17715 198.373 4.43947 198.373 4.76309V7.28104C198.373 7.60465 198.635 7.86697 198.959 7.86697H199.666L200.401 14.7616C200.436 15.0834 200.724 15.3166 201.046 15.2821C201.368 15.2477 201.601 14.959 201.567 14.6373L200.844 7.86697H215.822L215.097 14.6598C215.063 14.9816 215.296 15.2702 215.618 15.3046C215.639 15.3069 215.66 15.308 215.681 15.308C215.976 15.308 216.231 15.0848 216.263 14.7841L217.001 7.86697H217.708C218.031 7.86697 218.294 7.60465 218.294 7.28104V4.76309C218.294 4.43947 218.031 4.17715 217.708 4.17715ZM202.239 2.44623H205.696C205.859 2.44623 206.015 2.3782 206.125 2.2585L207.132 1.17188H209.534L210.541 2.2585C210.652 2.37814 210.808 2.44623 210.971 2.44623H214.428L215.132 4.17715H201.535L202.239 2.44623ZM217.122 6.6951H199.545V5.34902H217.122V6.6951Z" fill="#D8D8D8"/>
<path d="M199.363 12.8271L200.532 23.7779H216.135L217.303 12.8271H199.363ZM208.333 20.5038C207.142 20.5038 206.177 19.5384 206.177 18.3475C206.177 17.1567 207.142 16.1913 208.333 16.1913C209.524 16.1913 210.49 17.1567 210.49 18.3475C210.49 19.5384 209.524 20.5038 208.333 20.5038Z" fill="#D8D8D8"/>
<path d="M208.333 21.0897C206.821 21.0897 205.591 19.8596 205.591 18.3475C205.591 16.8355 206.821 15.6053 208.333 15.6053C209.845 15.6053 211.076 16.8355 211.076 18.3475C211.076 19.8596 209.845 21.0897 208.333 21.0897ZM208.333 16.7773C207.467 16.7773 206.763 17.4817 206.763 18.3476C206.763 19.2135 207.467 19.9179 208.333 19.9179C209.199 19.9179 209.904 19.2135 209.904 18.3476C209.904 17.4817 209.199 16.7773 208.333 16.7773Z" fill="#D8D8D8"/>
</g>
<g clip-path="url(#clip6_4_90)">
<path d="M247.214 21.1735C246.892 21.1389 246.604 21.3722 246.569 21.6939L245.808 28.8281H235.303L234.552 21.7898C234.518 21.468 234.229 21.2347 233.907 21.2694C233.586 21.3037 233.353 21.5924 233.387 21.9141L234.194 29.4762C234.225 29.7741 234.477 30 234.776 30H246.335C246.634 30 246.886 29.7741 246.918 29.4762L247.735 21.8183C247.769 21.4965 247.536 21.2078 247.214 21.1735Z" fill="#D8D8D8"/>
<path d="M249.93 4.17715H248.619L247.587 1.63951C247.497 1.41873 247.282 1.27436 247.044 1.27436H243.449L242.442 0.187734C242.331 0.0680273 242.176 0 242.013 0H239.099C238.935 0 238.78 0.0680273 238.669 0.187734L237.662 1.27436H234.067C233.829 1.27436 233.614 1.41873 233.524 1.63951L232.492 4.17715H231.181C230.857 4.17715 230.595 4.43947 230.595 4.76309V7.28104C230.595 7.60465 230.857 7.86697 231.181 7.86697H231.888L232.624 14.7616C232.658 15.0834 232.947 15.3166 233.268 15.2821C233.59 15.2477 233.823 14.959 233.789 14.6373L233.067 7.86697H248.044L247.32 14.6598C247.285 14.9816 247.518 15.2702 247.84 15.3046C247.861 15.3069 247.882 15.308 247.903 15.308C248.199 15.308 248.453 15.0848 248.485 14.7841L249.223 7.86697H249.93C250.254 7.86697 250.516 7.60465 250.516 7.28104V4.76309C250.516 4.43947 250.254 4.17715 249.93 4.17715ZM234.461 2.44623H237.918C238.081 2.44623 238.237 2.3782 238.348 2.2585L239.354 1.17188H241.757L242.763 2.2585C242.874 2.37814 243.03 2.44623 243.193 2.44623H246.65L247.354 4.17715H233.757L234.461 2.44623ZM249.344 6.6951H231.767V5.34902H249.344V6.6951Z" fill="#D8D8D8"/>
<path d="M231.586 12.8271L232.754 23.7779H248.357L249.525 12.8271H231.586ZM240.556 20.5038C239.365 20.5038 238.399 19.5384 238.399 18.3475C238.399 17.1567 239.365 16.1913 240.556 16.1913C241.746 16.1913 242.712 17.1567 242.712 18.3475C242.712 19.5384 241.746 20.5038 240.556 20.5038Z" fill="#D8D8D8"/>
<path d="M240.556 21.0897C239.043 21.0897 237.813 19.8596 237.813 18.3475C237.813 16.8355 239.043 15.6053 240.556 15.6053C242.068 15.6053 243.298 16.8355 243.298 18.3475C243.298 19.8596 242.068 21.0897 240.556 21.0897ZM240.556 16.7773C239.69 16.7773 238.985 17.4817 238.985 18.3476C238.985 19.2135 239.69 19.9179 240.556 19.9179C241.421 19.9179 242.126 19.2135 242.126 18.3476C242.126 17.4817 241.421 16.7773 240.556 16.7773Z" fill="#D8D8D8"/>
</g>
<g clip-path="url(#clip7_4_90)">
<path d="M118.325 21.1735C118.003 21.1389 117.715 21.3722 117.68 21.6939L116.919 28.8281H106.414L105.663 21.7898C105.629 21.468 105.34 21.2347 105.018 21.2694C104.697 21.3037 104.464 21.5924 104.498 21.9141L105.305 29.4762C105.337 29.7741 105.588 30 105.887 30H117.446C117.746 30 117.997 29.7741 118.029 29.4762L118.846 21.8183C118.88 21.4965 118.647 21.2078 118.325 21.1735Z" fill="#324A59"/>
<path d="M121.041 4.17715H119.73L118.698 1.63951C118.608 1.41873 118.394 1.27436 118.155 1.27436H114.56L113.554 0.187734C113.443 0.0680273 113.287 0 113.124 0H110.21C110.046 0 109.891 0.0680273 109.78 0.187734L108.773 1.27436H105.178C104.94 1.27436 104.725 1.41873 104.635 1.63951L103.603 4.17715H102.292C101.969 4.17715 101.706 4.43947 101.706 4.76309V7.28104C101.706 7.60465 101.969 7.86697 102.292 7.86697H102.999L103.735 14.7616C103.769 15.0834 104.058 15.3166 104.38 15.2821C104.701 15.2477 104.934 14.959 104.9 14.6373L104.178 7.86697H119.156L118.431 14.6598C118.396 14.9816 118.629 15.2702 118.951 15.3046C118.972 15.3069 118.993 15.308 119.014 15.308C119.31 15.308 119.564 15.0848 119.596 14.7841L120.334 7.86697H121.041C121.365 7.86697 121.627 7.60465 121.627 7.28104V4.76309C121.627 4.43947 121.365 4.17715 121.041 4.17715ZM105.572 2.44623H109.029C109.192 2.44623 109.348 2.3782 109.459 2.2585L110.466 1.17188H112.868L113.875 2.2585C113.985 2.37814 114.141 2.44623 114.304 2.44623H117.761L118.465 4.17715H104.868L105.572 2.44623ZM120.455 6.6951H102.878V5.34902H120.455V6.6951Z" fill="#324A59"/>
<path d="M102.697 12.8271L103.865 23.7779H119.468L120.637 12.8271H102.697ZM111.667 20.5038C110.476 20.5038 109.51 19.5384 109.51 18.3475C109.51 17.1567 110.476 16.1913 111.667 16.1913C112.858 16.1913 113.823 17.1567 113.823 18.3475C113.823 19.5384 112.858 20.5038 111.667 20.5038Z" fill="#E4D5C9"/>
<path d="M111.667 21.0897C110.155 21.0897 108.924 19.8596 108.924 18.3475C108.924 16.8355 110.155 15.6053 111.667 15.6053C113.179 15.6053 114.409 16.8355 114.409 18.3475C114.409 19.8596 113.179 21.0897 111.667 21.0897ZM111.667 16.7773C110.801 16.7773 110.096 17.4817 110.096 18.3476C110.096 19.2135 110.801 19.9179 111.667 19.9179C112.533 19.9179 113.237 19.2135 113.237 18.3476C113.237 17.4817 112.532 16.7773 111.667 16.7773Z" fill="#324A59"/>
</g>
<defs>
<clipPath id="clip0_4_90">
<rect width="30" height="30" fill="white"/>
</clipPath>
<clipPath id="clip1_4_90">
<rect width="30" height="30" fill="white" transform="translate(32.2222)"/>
</clipPath>
<clipPath id="clip2_4_90">
<rect width="30" height="30" fill="white" transform="translate(64.4444)"/>
</clipPath>
<clipPath id="clip3_4_90">
<rect width="30" height="30" fill="white" transform="translate(128.889)"/>
</clipPath>
<clipPath id="clip4_4_90">
<rect width="30" height="30" fill="white" transform="translate(161.111)"/>
</clipPath>
<clipPath id="clip5_4_90">
<rect width="30" height="30" fill="white" transform="translate(193.333)"/>
</clipPath>
<clipPath id="clip6_4_90">
<rect width="30" height="30" fill="white" transform="translate(225.556)"/>
</clipPath>
<clipPath id="clip7_4_90">
<rect width="30" height="30" fill="white" transform="translate(96.6667)"/>
</clipPath>
</defs>
</svg>
