<svg width="43" height="13" viewBox="0 0 43 13" fill="none" xmlns="http://www.w3.org/2000/svg">
<path d="M15.5489 12.6598L17.7029 0.408374H21.0685L18.9818 12.6598H15.5489Z" fill="#3C58BF"/>
<path d="M15.5489 12.6598L18.3087 0.408374H21.0685L18.9818 12.6598H15.5489Z" fill="#293688"/>
<path d="M31.1651 0.544506C30.492 0.272253 29.415 0 28.0688 0C24.7032 0 22.28 1.70158 22.28 4.15186C22.28 5.98957 23.9628 6.94245 25.309 7.55502C26.6553 8.16759 27.0591 8.57597 27.0591 9.12048C27.0591 9.93724 25.9821 10.3456 25.0398 10.3456C23.6936 10.3456 22.9531 10.1414 21.8088 9.66498L21.3377 9.46079L20.8665 12.2514C21.6742 12.5917 23.1551 12.932 24.7032 12.932C28.2707 12.932 30.6266 11.2304 30.6266 8.64404C30.6266 7.21471 29.7516 6.12569 27.7322 5.24087C26.5206 4.6283 25.7802 4.28799 25.7802 3.67542C25.7802 3.13091 26.386 2.5864 27.7322 2.5864C28.8765 2.5864 29.6843 2.79059 30.2901 3.06285L30.6266 3.19897L31.1651 0.544506Z" fill="#3C58BF"/>
<path d="M31.1651 0.544506C30.492 0.272253 29.415 0 28.0688 0C24.7032 0 22.8858 1.70158 22.8858 4.15186C22.8858 5.98957 23.9628 6.94245 25.309 7.55502C26.6553 8.16759 27.0591 8.57597 27.0591 9.12048C27.0591 9.93724 25.9821 10.3456 25.0398 10.3456C23.6936 10.3456 22.9531 10.1414 21.8088 9.66498L21.3377 9.46079L20.8665 12.2514C21.6742 12.5917 23.1551 12.932 24.7032 12.932C28.2707 12.932 30.6266 11.2304 30.6266 8.64404C30.6266 7.21471 29.7516 6.12569 27.7322 5.24087C26.5206 4.6283 25.7802 4.28799 25.7802 3.67542C25.7802 3.13091 26.386 2.5864 27.7322 2.5864C28.8765 2.5864 29.6843 2.79059 30.2901 3.06285L30.6266 3.19897L31.1651 0.544506Z" fill="#293688"/>
<path fill-rule="evenodd" clip-rule="evenodd" d="M35.2038 1.2932C35.5404 0.476437 36.1462 0.408374 36.9539 0.408374H39.5791L42.4062 12.6598H39.1752L38.7713 10.6179H34.4634L33.7903 12.6598H30.1555L35.2038 1.2932ZM36.752 4.96872C36.752 4.96872 35.6077 7.96351 35.4057 8.57608V8.64414H38.2328C38.0982 7.96351 37.4251 4.90066 37.4251 4.90066L37.2231 3.74359C37.0212 4.22003 36.752 4.96872 36.752 4.96872Z" fill="#3C58BF"/>
<path fill-rule="evenodd" clip-rule="evenodd" d="M36.0116 1.2932C36.3481 0.476437 36.9539 0.408374 37.7617 0.408374H39.5791L42.4062 12.6598H39.1752L38.7713 10.6179H34.4634L33.7903 12.6598H30.1555L36.0116 1.2932ZM36.752 4.96872C36.752 4.96872 35.675 7.89545 35.4057 8.57608V8.64414H38.2328C38.0982 7.96351 37.4251 4.90066 37.4251 4.90066L37.2231 3.74359C37.0212 4.22003 36.752 4.96872 36.752 4.96872Z" fill="#293688"/>
<path d="M9.35625 8.98435L9.01969 7.2147C8.41389 5.1728 6.46186 2.92671 4.30789 1.8377L7.33691 12.7278H10.9717L16.4239 0.476436H12.7891L9.35625 8.98435Z" fill="#3C58BF"/>
<path d="M9.35625 8.98435L9.01969 7.2147C8.41389 5.1728 6.46186 2.92671 4.30789 1.8377L7.33691 12.7278H10.9717L16.4239 0.476436H13.4622L9.35625 8.98435Z" fill="#293688"/>
<path d="M0 0.408374L0.605803 0.5445C4.91373 1.56545 7.87544 4.15185 9.01973 7.2147L7.80812 1.42932C7.60619 0.612564 7.00039 0.408374 6.25996 0.408374H0V0.408374Z" fill="#FFBC00"/>
<path d="M0 0.408374C4.30793 1.42932 7.87544 4.08379 9.01973 7.14664L7.87544 2.31415C7.6735 1.49739 7.00039 1.02094 6.25996 1.02094L0 0.408374Z" fill="#F7981D"/>
<path d="M0 0.408374C4.30793 1.42932 7.87544 4.08379 9.01973 7.14664L8.21199 4.49217C8.01006 3.67541 7.74081 2.85865 6.79845 2.51834L0 0.408374Z" fill="#ED7C00"/>
<path d="M12.7219 8.57594L10.4333 6.26179L9.35632 8.84819L9.08707 7.14661C8.48127 5.10471 6.52924 2.85862 4.37527 1.76961L7.40429 12.6597H11.0391L12.7219 8.57594Z" fill="#051244"/>
<path d="M18.9819 12.6597L16.0876 9.66487L15.5491 12.6597H18.9819Z" fill="#051244"/>
<path d="M26.7227 8.43976C26.9919 8.71201 27.1266 8.9162 27.0593 9.18845C27.0593 10.0052 25.9823 10.4136 25.0399 10.4136C23.6937 10.4136 22.9533 10.2094 21.809 9.73296L21.3378 9.52877L20.8666 12.3194C21.6743 12.6597 23.1552 13 24.7034 13C26.8573 13 28.6074 12.3874 29.6171 11.2984L26.7227 8.43976Z" fill="#051244"/>
<path d="M30.6268 12.6596H33.7904L34.4636 10.6177H38.7715L39.1754 12.6596H42.4063L41.262 7.69102L37.2233 3.74335L37.4253 4.83236C37.4253 4.83236 38.0984 7.89521 38.233 8.57584H35.4059C35.6752 7.89521 36.7521 4.96849 36.7521 4.96849C36.7521 4.96849 37.0214 4.21979 37.2233 3.74335" fill="#051244"/>
</svg>
