<svg width="16" height="19" viewBox="0 0 16 19" fill="none" xmlns="http://www.w3.org/2000/svg">
<path fill-rule="evenodd" clip-rule="evenodd" d="M12.276 7.78913C11.8828 7.78913 11.5636 7.46995 11.5636 7.07669V5.03721C11.5636 3.04617 9.944 1.42656 7.95296 1.42656H7.93776C6.97549 1.42656 6.07402 1.79703 5.39293 2.47242C4.70709 3.15066 4.32807 4.05594 4.32427 5.02106V7.07669C4.32427 7.46995 4.00509 7.78913 3.61183 7.78913C3.21856 7.78913 2.89939 7.46995 2.89939 7.07669V5.03721C2.90509 3.66932 3.43419 2.40688 4.38886 1.46076C5.34448 0.513685 6.60598 -0.0344187 7.95581 0.00167829C10.7296 0.00167829 12.9885 2.26059 12.9885 5.03721V7.07669C12.9885 7.46995 12.6693 7.78913 12.276 7.78913Z" fill="#001833"/>
<path fill-rule="evenodd" clip-rule="evenodd" d="M4.31462 7.72178C2.72065 7.72178 1.42496 9.01747 1.42496 10.6114V14.6856C1.42496 16.2796 2.72065 17.5753 4.31462 17.5753H11.573C13.166 17.5753 14.4626 16.2796 14.4626 14.6856V10.6114C14.4626 9.01747 13.166 7.72178 11.573 7.72178H4.31462ZM11.5729 19H4.31454C1.93499 19 0 17.065 0 14.6854V10.6112C0 8.23166 1.93499 6.29667 4.31454 6.29667H11.5729C13.9524 6.29667 15.8874 8.23166 15.8874 10.6112V14.6854C15.8874 17.065 13.9524 19 11.5729 19Z" fill="#001833"/>
<path fill-rule="evenodd" clip-rule="evenodd" d="M7.94294 14.4156C7.54967 14.4156 7.2305 14.0964 7.2305 13.7032V11.5934C7.2305 11.2001 7.54967 10.8809 7.94294 10.8809C8.3362 10.8809 8.65538 11.2001 8.65538 11.5934V13.7032C8.65538 14.0964 8.3362 14.4156 7.94294 14.4156Z" fill="#001833"/>
</svg>
